<mxfile host="65bd71144e">
    <diagram id="WSVSfrIA1y7gu8DtWax3" name="Page-1">
        <mxGraphModel dx="1821" dy="1309" grid="0" gridSize="10" guides="1" tooltips="1" connect="1" arrows="1" fold="1" page="0" pageScale="1" pageWidth="850" pageHeight="1400" math="0" shadow="0">
            <root>
                <mxCell id="0"/>
                <mxCell id="1" parent="0"/>
                <mxCell id="2" value="&lt;font style=&quot;font-size: 80px;&quot;&gt;Police Citizen Manager&lt;/font&gt;" style="text;html=1;align=center;verticalAlign=middle;resizable=0;points=[];autosize=1;fontSize=40;fontFamily=Comic Sans MS;sketch=1;hachureGap=4;jiggle=2;curveFitting=1;fontStyle=5" parent="1" vertex="1">
                    <mxGeometry x="229.5" y="-110" width="891" height="108" as="geometry"/>
                </mxCell>
                <mxCell id="3" value="Classes:" style="text;html=1;align=center;verticalAlign=middle;resizable=0;points=[];autosize=1;fontSize=53;fontFamily=Comic Sans MS;sketch=1;hachureGap=4;jiggle=2;curveFitting=1;fontSource=https%3A%2F%2Ffonts.googleapis.com%2Fcss%3Ffamily%3DArchitects%2BDaughter;fontStyle=3;" parent="1" vertex="1">
                    <mxGeometry x="-11" y="84" width="225" height="76" as="geometry"/>
                </mxCell>
                <mxCell id="4" value="1) Window" style="text;html=1;align=center;verticalAlign=middle;resizable=0;points=[];autosize=1;fontSize=40;fontFamily=Comic Sans MS;sketch=1;hachureGap=4;jiggle=2;curveFitting=1;fontSource=https%3A%2F%2Ffonts.googleapis.com%2Fcss%3Ffamily%3DArchitects%2BDaughter;" parent="1" vertex="1">
                    <mxGeometry x="14" y="162" width="208" height="60" as="geometry"/>
                </mxCell>
                <mxCell id="5" value="&lt;div style=&quot;text-align: left; font-size: 33px;&quot;&gt;Main Window (DatabasePicker, MainMenu, Search, Insert, Update, etc)&lt;/div&gt;&lt;div style=&quot;text-align: left; font-size: 33px;&quot;&gt;App Description Window&lt;/div&gt;&lt;div style=&quot;text-align: left; font-size: 33px;&quot;&gt;Access Copyright Window&lt;/div&gt;" style="text;html=1;align=center;verticalAlign=middle;resizable=0;points=[];autosize=1;fontSize=33;fontFamily=Comic Sans MS;sketch=1;hachureGap=4;jiggle=2;curveFitting=1;fontSource=https%3A%2F%2Ffonts.googleapis.com%2Fcss%3Ffamily%3DArchitects%2BDaughter;" parent="1" vertex="1">
                    <mxGeometry x="110" y="222" width="1120" height="130" as="geometry"/>
                </mxCell>
                <mxCell id="8" value="" style="edgeStyle=elbowEdgeStyle;endArrow=classic;html=1;rounded=0;endSize=8;startSize=8;hachureGap=4;fontFamily=Comic Sans MS;fontSize=80;entryX=0.001;entryY=0.225;entryDx=0;entryDy=0;entryPerimeter=0;strokeWidth=2;" parent="1" target="5" edge="1">
                    <mxGeometry width="50" height="50" relative="1" as="geometry">
                        <mxPoint x="60" y="230" as="sourcePoint"/>
                        <mxPoint x="110" y="260" as="targetPoint"/>
                        <Array as="points">
                            <mxPoint x="60" y="270"/>
                        </Array>
                    </mxGeometry>
                </mxCell>
                <mxCell id="9" value="" style="edgeStyle=elbowEdgeStyle;endArrow=classic;html=1;rounded=0;endSize=8;startSize=8;hachureGap=4;fontFamily=Comic Sans MS;fontSize=80;strokeWidth=2;" parent="1" edge="1">
                    <mxGeometry width="50" height="50" relative="1" as="geometry">
                        <mxPoint x="60" y="230" as="sourcePoint"/>
                        <mxPoint x="110" y="290" as="targetPoint"/>
                        <Array as="points">
                            <mxPoint x="60" y="250"/>
                        </Array>
                    </mxGeometry>
                </mxCell>
                <mxCell id="10" value="" style="edgeStyle=elbowEdgeStyle;endArrow=classic;html=1;rounded=0;endSize=8;startSize=8;hachureGap=4;fontFamily=Comic Sans MS;fontSize=80;strokeWidth=2;" parent="1" edge="1">
                    <mxGeometry width="50" height="50" relative="1" as="geometry">
                        <mxPoint x="60" y="230" as="sourcePoint"/>
                        <mxPoint x="112" y="330" as="targetPoint"/>
                        <Array as="points">
                            <mxPoint x="60" y="270"/>
                        </Array>
                    </mxGeometry>
                </mxCell>
                <mxCell id="11" value="Windows:" style="text;html=1;align=center;verticalAlign=middle;resizable=0;points=[];autosize=1;fontSize=53;fontFamily=Comic Sans MS;sketch=1;hachureGap=4;jiggle=2;curveFitting=1;fontSource=https%3A%2F%2Ffonts.googleapis.com%2Fcss%3Ffamily%3DArchitects%2BDaughter;fontStyle=3;" parent="1" vertex="1">
                    <mxGeometry x="6" y="442" width="260" height="76" as="geometry"/>
                </mxCell>
                <mxCell id="12" value="" style="rounded=0;whiteSpace=wrap;html=1;hachureGap=4;fontFamily=Architects Daughter;fontSource=https%3A%2F%2Ffonts.googleapis.com%2Fcss%3Ffamily%3DArchitects%2BDaughter;fontSize=53;arcSize=3;" parent="1" vertex="1">
                    <mxGeometry x="-44" y="572.5" width="400" height="240" as="geometry"/>
                </mxCell>
                <mxCell id="13" value="Basic Window" style="text;html=1;align=center;verticalAlign=middle;resizable=0;points=[];autosize=1;fontSize=18;fontFamily=Comic Sans MS;sketch=1;hachureGap=4;jiggle=2;curveFitting=1;" parent="1" vertex="1">
                    <mxGeometry x="90" y="543" width="133" height="34" as="geometry"/>
                </mxCell>
                <mxCell id="15" value="&amp;nbsp; Window Title" style="rounded=0;whiteSpace=wrap;html=1;sketch=0;hachureGap=4;jiggle=2;curveFitting=1;fontFamily=Comic Sans MS;fontSize=9;arcSize=41;align=left;verticalAlign=middle;" parent="1" vertex="1">
                    <mxGeometry x="-43" y="573.5" width="398" height="17" as="geometry"/>
                </mxCell>
                <mxCell id="16" value="" style="rounded=0;whiteSpace=wrap;html=1;sketch=0;hachureGap=4;jiggle=2;curveFitting=1;fontFamily=Comic Sans MS;fontSize=9;" parent="1" vertex="1">
                    <mxGeometry x="322" y="576.5" width="7" height="8" as="geometry"/>
                </mxCell>
                <mxCell id="17" value="" style="rounded=0;whiteSpace=wrap;html=1;sketch=0;hachureGap=4;jiggle=2;curveFitting=1;fontFamily=Comic Sans MS;fontSize=9;" parent="1" vertex="1">
                    <mxGeometry x="320" y="578.5" width="7" height="7" as="geometry"/>
                </mxCell>
                <mxCell id="19" value="" style="rounded=0;whiteSpace=wrap;html=1;sketch=0;hachureGap=4;jiggle=2;curveFitting=1;fontFamily=Comic Sans MS;fontSize=9;" parent="1" vertex="1">
                    <mxGeometry x="296" y="584.5" width="12" height="1" as="geometry"/>
                </mxCell>
                <mxCell id="20" value="" style="rounded=0;whiteSpace=wrap;html=1;sketch=0;hachureGap=4;jiggle=2;curveFitting=1;fontFamily=Comic Sans MS;fontSize=9;rotation=45;" parent="1" vertex="1">
                    <mxGeometry x="340" y="580.5" width="12" height="1" as="geometry"/>
                </mxCell>
                <mxCell id="21" value="" style="rounded=0;whiteSpace=wrap;html=1;sketch=0;hachureGap=4;jiggle=2;curveFitting=1;fontFamily=Comic Sans MS;fontSize=9;rotation=-45;" parent="1" vertex="1">
                    <mxGeometry x="340" y="580.5" width="12" height="1" as="geometry"/>
                </mxCell>
                <mxCell id="22" value="" style="rounded=0;whiteSpace=wrap;html=1;hachureGap=4;fontFamily=Architects Daughter;fontSource=https%3A%2F%2Ffonts.googleapis.com%2Fcss%3Ffamily%3DArchitects%2BDaughter;fontSize=53;arcSize=3;" parent="1" vertex="1">
                    <mxGeometry x="378.5" y="572.5" width="400" height="240" as="geometry"/>
                </mxCell>
                <mxCell id="23" value="Big Window" style="text;html=1;align=center;verticalAlign=middle;resizable=0;points=[];autosize=1;fontSize=18;fontFamily=Comic Sans MS;sketch=1;hachureGap=4;jiggle=2;curveFitting=1;" parent="1" vertex="1">
                    <mxGeometry x="521.5" y="543" width="115" height="34" as="geometry"/>
                </mxCell>
                <mxCell id="24" value="&amp;nbsp; Window Title" style="rounded=0;whiteSpace=wrap;html=1;sketch=0;hachureGap=4;jiggle=2;curveFitting=1;fontFamily=Comic Sans MS;fontSize=9;arcSize=41;align=left;verticalAlign=middle;" parent="1" vertex="1">
                    <mxGeometry x="379.5" y="573" width="398" height="17.5" as="geometry"/>
                </mxCell>
                <mxCell id="25" value="" style="rounded=0;whiteSpace=wrap;html=1;sketch=0;hachureGap=4;jiggle=2;curveFitting=1;fontFamily=Comic Sans MS;fontSize=9;" parent="1" vertex="1">
                    <mxGeometry x="744.5" y="576.5" width="7" height="8" as="geometry"/>
                </mxCell>
                <mxCell id="26" value="" style="rounded=0;whiteSpace=wrap;html=1;sketch=0;hachureGap=4;jiggle=2;curveFitting=1;fontFamily=Comic Sans MS;fontSize=9;" parent="1" vertex="1">
                    <mxGeometry x="742.5" y="578.5" width="7" height="7" as="geometry"/>
                </mxCell>
                <mxCell id="27" value="" style="rounded=0;whiteSpace=wrap;html=1;sketch=0;hachureGap=4;jiggle=2;curveFitting=1;fontFamily=Comic Sans MS;fontSize=9;" parent="1" vertex="1">
                    <mxGeometry x="718.5" y="584.5" width="12" height="1" as="geometry"/>
                </mxCell>
                <mxCell id="28" value="" style="rounded=0;whiteSpace=wrap;html=1;sketch=0;hachureGap=4;jiggle=2;curveFitting=1;fontFamily=Comic Sans MS;fontSize=9;rotation=45;" parent="1" vertex="1">
                    <mxGeometry x="762.5" y="580.5" width="12" height="1" as="geometry"/>
                </mxCell>
                <mxCell id="29" value="" style="rounded=0;whiteSpace=wrap;html=1;sketch=0;hachureGap=4;jiggle=2;curveFitting=1;fontFamily=Comic Sans MS;fontSize=9;rotation=-45;" parent="1" vertex="1">
                    <mxGeometry x="762.5" y="580.5" width="12" height="1" as="geometry"/>
                </mxCell>
                <mxCell id="30" value="&amp;nbsp; File&amp;nbsp; Edit&amp;nbsp; Help" style="rounded=0;whiteSpace=wrap;html=1;sketch=0;hachureGap=4;jiggle=2;curveFitting=1;fontFamily=Comic Sans MS;fontSize=6;arcSize=41;align=left;verticalAlign=middle;strokeColor=none;" parent="1" vertex="1">
                    <mxGeometry x="380" y="593" width="398" height="12" as="geometry"/>
                </mxCell>
                <mxCell id="31" value="" style="rounded=0;whiteSpace=wrap;html=1;hachureGap=4;fontFamily=Architects Daughter;fontSource=https%3A%2F%2Ffonts.googleapis.com%2Fcss%3Ffamily%3DArchitects%2BDaughter;fontSize=53;arcSize=3;" parent="1" vertex="1">
                    <mxGeometry x="799.5" y="572.5" width="190.5" height="240" as="geometry"/>
                </mxCell>
                <mxCell id="32" value="Small Window" style="text;html=1;align=center;verticalAlign=middle;resizable=0;points=[];autosize=1;fontSize=18;fontFamily=Comic Sans MS;sketch=1;hachureGap=4;jiggle=2;curveFitting=1;" parent="1" vertex="1">
                    <mxGeometry x="827.75" y="538.5" width="134" height="34" as="geometry"/>
                </mxCell>
                <mxCell id="33" value="&amp;nbsp; Window Title" style="rounded=0;whiteSpace=wrap;html=1;sketch=0;hachureGap=4;jiggle=2;curveFitting=1;fontFamily=Comic Sans MS;fontSize=9;arcSize=41;align=left;verticalAlign=middle;" parent="1" vertex="1">
                    <mxGeometry x="800.5" y="573.5" width="188.5" height="17" as="geometry"/>
                </mxCell>
                <mxCell id="34" value="" style="rounded=0;whiteSpace=wrap;html=1;sketch=0;hachureGap=4;jiggle=2;curveFitting=1;fontFamily=Comic Sans MS;fontSize=9;" parent="1" vertex="1">
                    <mxGeometry x="956" y="577" width="7" height="8" as="geometry"/>
                </mxCell>
                <mxCell id="35" value="" style="rounded=0;whiteSpace=wrap;html=1;sketch=0;hachureGap=4;jiggle=2;curveFitting=1;fontFamily=Comic Sans MS;fontSize=9;" parent="1" vertex="1">
                    <mxGeometry x="954" y="579" width="7" height="7" as="geometry"/>
                </mxCell>
                <mxCell id="36" value="" style="rounded=0;whiteSpace=wrap;html=1;sketch=0;hachureGap=4;jiggle=2;curveFitting=1;fontFamily=Comic Sans MS;fontSize=9;" parent="1" vertex="1">
                    <mxGeometry x="930" y="585" width="12" height="1" as="geometry"/>
                </mxCell>
                <mxCell id="37" value="" style="rounded=0;whiteSpace=wrap;html=1;sketch=0;hachureGap=4;jiggle=2;curveFitting=1;fontFamily=Comic Sans MS;fontSize=9;rotation=45;" parent="1" vertex="1">
                    <mxGeometry x="974" y="581" width="12" height="1" as="geometry"/>
                </mxCell>
                <mxCell id="38" value="" style="rounded=0;whiteSpace=wrap;html=1;sketch=0;hachureGap=4;jiggle=2;curveFitting=1;fontFamily=Comic Sans MS;fontSize=9;rotation=-45;" parent="1" vertex="1">
                    <mxGeometry x="974" y="581" width="12" height="1" as="geometry"/>
                </mxCell>
                <mxCell id="39" value="" style="rounded=0;whiteSpace=wrap;html=1;hachureGap=4;fontFamily=Architects Daughter;fontSource=https%3A%2F%2Ffonts.googleapis.com%2Fcss%3Ffamily%3DArchitects%2BDaughter;fontSize=53;arcSize=3;" parent="1" vertex="1">
                    <mxGeometry x="1009.5" y="572.5" width="286" height="128" as="geometry"/>
                </mxCell>
                <mxCell id="40" value="Password Window" style="text;html=1;align=center;verticalAlign=middle;resizable=0;points=[];autosize=1;fontSize=18;fontFamily=Comic Sans MS;sketch=1;hachureGap=4;jiggle=2;curveFitting=1;" parent="1" vertex="1">
                    <mxGeometry x="1069.5" y="539.5" width="166" height="34" as="geometry"/>
                </mxCell>
                <mxCell id="41" value="&amp;nbsp; Window Title" style="rounded=0;whiteSpace=wrap;html=1;sketch=0;hachureGap=4;jiggle=2;curveFitting=1;fontFamily=Comic Sans MS;fontSize=9;arcSize=41;align=left;verticalAlign=middle;" parent="1" vertex="1">
                    <mxGeometry x="1010.5" y="573.5" width="284" height="17" as="geometry"/>
                </mxCell>
                <mxCell id="42" value="" style="rounded=0;whiteSpace=wrap;html=1;sketch=0;hachureGap=4;jiggle=2;curveFitting=1;fontFamily=Comic Sans MS;fontSize=9;" parent="1" vertex="1">
                    <mxGeometry x="1260.5" y="577.5" width="7" height="8" as="geometry"/>
                </mxCell>
                <mxCell id="43" value="" style="rounded=0;whiteSpace=wrap;html=1;sketch=0;hachureGap=4;jiggle=2;curveFitting=1;fontFamily=Comic Sans MS;fontSize=9;" parent="1" vertex="1">
                    <mxGeometry x="1258.5" y="579.5" width="7" height="7" as="geometry"/>
                </mxCell>
                <mxCell id="44" value="" style="rounded=0;whiteSpace=wrap;html=1;sketch=0;hachureGap=4;jiggle=2;curveFitting=1;fontFamily=Comic Sans MS;fontSize=9;" parent="1" vertex="1">
                    <mxGeometry x="1234.5" y="585.5" width="12" height="1" as="geometry"/>
                </mxCell>
                <mxCell id="45" value="" style="rounded=0;whiteSpace=wrap;html=1;sketch=0;hachureGap=4;jiggle=2;curveFitting=1;fontFamily=Comic Sans MS;fontSize=9;rotation=45;" parent="1" vertex="1">
                    <mxGeometry x="1278.5" y="581.5" width="12" height="1" as="geometry"/>
                </mxCell>
                <mxCell id="46" value="" style="rounded=0;whiteSpace=wrap;html=1;sketch=0;hachureGap=4;jiggle=2;curveFitting=1;fontFamily=Comic Sans MS;fontSize=9;rotation=-45;" parent="1" vertex="1">
                    <mxGeometry x="1278.5" y="581.5" width="12" height="1" as="geometry"/>
                </mxCell>
                <mxCell id="58" value="Windows Inheritance:" style="text;html=1;align=center;verticalAlign=middle;resizable=0;points=[];autosize=1;fontSize=53;fontFamily=Comic Sans MS;sketch=1;hachureGap=4;jiggle=2;curveFitting=1;fontSource=https%3A%2F%2Ffonts.googleapis.com%2Fcss%3Ffamily%3DArchitects%2BDaughter;fontStyle=3;" parent="1" vertex="1">
                    <mxGeometry x="-6" y="1165" width="579" height="76" as="geometry"/>
                </mxCell>
                <mxCell id="68" style="edgeStyle=none;sketch=0;hachureGap=4;jiggle=2;curveFitting=1;html=1;strokeWidth=2;fontFamily=Comic Sans MS;fontSize=12;fontColor=#545454;" parent="1" source="59" target="60" edge="1">
                    <mxGeometry relative="1" as="geometry"/>
                </mxCell>
                <mxCell id="69" style="edgeStyle=none;sketch=0;hachureGap=4;jiggle=2;curveFitting=1;html=1;strokeWidth=2;fontFamily=Comic Sans MS;fontSize=12;fontColor=#545454;" parent="1" source="59" target="61" edge="1">
                    <mxGeometry relative="1" as="geometry"/>
                </mxCell>
                <mxCell id="70" style="edgeStyle=none;sketch=0;hachureGap=4;jiggle=2;curveFitting=1;html=1;strokeWidth=2;fontFamily=Comic Sans MS;fontSize=12;fontColor=#545454;" parent="1" source="59" target="62" edge="1">
                    <mxGeometry relative="1" as="geometry"/>
                </mxCell>
                <mxCell id="59" value="Basic Window" style="text;html=1;align=center;verticalAlign=middle;resizable=0;points=[];autosize=1;fontSize=18;fontFamily=Comic Sans MS;hachureGap=4;" parent="1" vertex="1">
                    <mxGeometry x="731" y="1256" width="133" height="34" as="geometry"/>
                </mxCell>
                <mxCell id="72" style="edgeStyle=none;sketch=0;hachureGap=4;jiggle=2;curveFitting=1;html=1;strokeWidth=2;fontFamily=Comic Sans MS;fontSize=12;fontColor=#545454;" parent="1" source="60" target="64" edge="1">
                    <mxGeometry relative="1" as="geometry"/>
                </mxCell>
                <mxCell id="60" value="Big Window" style="text;html=1;align=center;verticalAlign=middle;resizable=0;points=[];autosize=1;fontSize=18;fontFamily=Comic Sans MS;hachureGap=4;" parent="1" vertex="1">
                    <mxGeometry x="195" y="1377" width="115" height="34" as="geometry"/>
                </mxCell>
                <mxCell id="74" style="edgeStyle=none;shape=connector;rounded=1;sketch=0;hachureGap=4;jiggle=2;curveFitting=1;html=1;labelBackgroundColor=default;strokeWidth=2;fontFamily=Comic Sans MS;fontSize=12;fontColor=#545454;endArrow=classic;" parent="1" source="61" target="66" edge="1">
                    <mxGeometry relative="1" as="geometry"/>
                </mxCell>
                <mxCell id="75" style="edgeStyle=none;shape=connector;rounded=1;sketch=0;hachureGap=4;jiggle=2;curveFitting=1;html=1;labelBackgroundColor=default;strokeWidth=2;fontFamily=Comic Sans MS;fontSize=12;fontColor=#545454;endArrow=classic;" parent="1" source="61" target="67" edge="1">
                    <mxGeometry relative="1" as="geometry"/>
                </mxCell>
                <mxCell id="61" value="Small Window" style="text;html=1;align=center;verticalAlign=middle;resizable=0;points=[];autosize=1;fontSize=18;fontFamily=Comic Sans MS;hachureGap=4;" parent="1" vertex="1">
                    <mxGeometry x="730" y="1377" width="134" height="34" as="geometry"/>
                </mxCell>
                <mxCell id="62" value="Password Window" style="text;html=1;align=center;verticalAlign=middle;resizable=0;points=[];autosize=1;fontSize=18;fontFamily=Comic Sans MS;hachureGap=4;" parent="1" vertex="1">
                    <mxGeometry x="1160" y="1377" width="166" height="34" as="geometry"/>
                </mxCell>
                <mxCell id="64" value="Main Window" style="text;html=1;align=center;verticalAlign=middle;resizable=0;points=[];autosize=1;fontSize=18;fontFamily=Comic Sans MS;hachureGap=4;" parent="1" vertex="1">
                    <mxGeometry x="188.5" y="1544.5" width="128" height="34" as="geometry"/>
                </mxCell>
                <mxCell id="66" value="App Description Window" style="text;html=1;align=center;verticalAlign=middle;resizable=0;points=[];autosize=1;fontSize=18;fontFamily=Comic Sans MS;hachureGap=4;" parent="1" vertex="1">
                    <mxGeometry x="554" y="1541.5" width="230" height="40" as="geometry"/>
                </mxCell>
                <mxCell id="67" value="Access Copyright Window" style="text;html=1;align=center;verticalAlign=middle;resizable=0;points=[];autosize=1;fontSize=18;fontFamily=Comic Sans MS;hachureGap=4;" parent="1" vertex="1">
                    <mxGeometry x="820" y="1541.5" width="240" height="40" as="geometry"/>
                </mxCell>
                <mxCell id="76" value="" style="endArrow=none;dashed=1;html=1;sketch=0;hachureGap=4;jiggle=2;curveFitting=1;strokeWidth=2;fontFamily=Comic Sans MS;fontSize=6;fontColor=#5E5E5E;" parent="1" edge="1">
                    <mxGeometry width="50" height="50" relative="1" as="geometry">
                        <mxPoint x="1374" y="1135" as="sourcePoint"/>
                        <mxPoint x="-66" y="1135" as="targetPoint"/>
                    </mxGeometry>
                </mxCell>
                <mxCell id="77" value="" style="endArrow=none;dashed=1;html=1;sketch=0;hachureGap=4;jiggle=2;curveFitting=1;strokeWidth=2;fontFamily=Comic Sans MS;fontSize=6;fontColor=#5E5E5E;" parent="1" edge="1">
                    <mxGeometry width="50" height="50" relative="1" as="geometry">
                        <mxPoint x="1390" y="410" as="sourcePoint"/>
                        <mxPoint x="-50" y="410" as="targetPoint"/>
                    </mxGeometry>
                </mxCell>
                <mxCell id="79" value="Each window will have one or many frames containing the data (Frames, Labels, Texts, Entries, etc)." style="text;html=1;align=center;verticalAlign=middle;resizable=0;points=[];autosize=1;strokeColor=none;fillColor=none;fontSize=20;fontFamily=Comic Sans MS;sketch=1;hachureGap=4;jiggle=2;curveFitting=1;" vertex="1" parent="1">
                    <mxGeometry x="-43" y="840" width="947" height="36" as="geometry"/>
                </mxCell>
            </root>
        </mxGraphModel>
    </diagram>
</mxfile>